<svg width="20" height="20" viewBox="0 0 20 20" fill="none" xmlns="http://www.w3.org/2000/svg">
<path d="M16.667 3.33325C17.127 3.33343 17.4998 3.70628 17.5 4.16626V15.8333C17.5 16.2934 17.1271 16.6661 16.667 16.6663H3.33301C2.87292 16.6661 2.5 16.2934 2.5 15.8333V4.16626C2.50018 3.70628 2.87303 3.33343 3.33301 3.33325H16.667ZM8.55371 9.32446C8.42251 9.13369 8.14197 9.1318 8.00781 9.32056L3.90918 15.0872C3.75272 15.3078 3.91005 15.6135 4.18066 15.6135H15.7949C16.07 15.6132 16.2265 15.2978 16.0605 15.0784L13.498 11.6975C13.3646 11.5218 13.1001 11.5217 12.9668 11.6975L11.5059 13.6233L8.55371 9.32446ZM13.377 9.25122C12.9633 9.25122 12.6279 9.58664 12.6279 10.0002C12.6281 10.4137 12.9634 10.7493 13.377 10.7493C13.7903 10.749 14.1249 10.4136 14.125 10.0002C14.125 9.5868 13.7903 9.25148 13.377 9.25122Z" fill="currentColor"/>
</svg>
