<svg width="16" height="16" viewBox="0 0 16 16" xmlns="http://www.w3.org/2000/svg">
<path d="M8.00024 1.33398C11.682 1.33416 14.6663 4.31919 14.6663 8.00098C14.6661 11.6826 11.6819 14.6668 8.00024 14.667C4.31845 14.667 1.33343 11.6827 1.33325 8.00098C1.33325 4.31908 4.31835 1.33398 8.00024 1.33398ZM8.00513 10.1982C7.55721 10.1982 7.19263 10.5635 7.19263 11.001C7.1928 11.4487 7.55732 11.8135 8.00513 11.8135C8.43211 11.8135 8.8067 11.4487 8.80688 11.001C8.80688 10.5635 8.43221 10.1982 8.00513 10.1982ZM7.99536 4.18848C7.60652 4.1885 7.29385 4.50872 7.30298 4.89746L7.39771 8.92285C7.40538 9.24967 7.67237 9.5107 7.99927 9.51074C8.32666 9.51074 8.59378 9.24919 8.60083 8.92188L8.68774 4.89551C8.69604 4.50732 8.38365 4.18848 7.99536 4.18848Z" fill="currentColor"/>
</svg>
