<svg width="24" height="24" viewBox="0 0 24 24" fill="none" xmlns="http://www.w3.org/2000/svg">
<g clip-path="url(#clip0_146_183)">
<path d="M9.11572 3.11597C9.60386 2.62783 10.3951 2.62787 10.8833 3.11597C11.3715 3.60412 11.3715 4.39539 10.8833 4.88354L5.01709 10.7498H21.9995C22.6899 10.7498 23.2495 11.3094 23.2495 11.9998C23.2494 12.69 22.6898 13.2498 21.9995 13.2498H5.01709L10.8833 19.116C11.3715 19.6041 11.3715 20.3954 10.8833 20.8835C10.3951 21.3713 9.60374 21.3716 9.11572 20.8835L1.11572 12.8835C1.05862 12.8264 1.00764 12.7633 0.962402 12.696C0.94805 12.6747 0.935258 12.6526 0.922363 12.6306C0.913948 12.6163 0.904825 12.6023 0.896973 12.5876C0.888101 12.571 0.880626 12.5538 0.872559 12.5369C0.863103 12.5171 0.852666 12.4977 0.844238 12.4773C0.83549 12.4561 0.828335 12.4344 0.820801 12.4128C0.815125 12.3966 0.809219 12.3805 0.804199 12.364C0.799484 12.3485 0.795603 12.3328 0.791504 12.3171C0.775058 12.2544 0.761897 12.19 0.755371 12.1238C0.753858 12.1085 0.754374 12.0932 0.753418 12.0779C0.751818 12.052 0.749515 12.026 0.749512 11.9998C0.749512 11.9739 0.751869 11.9481 0.753418 11.9226C0.756764 11.868 0.762461 11.8134 0.772949 11.7595C0.777705 11.7351 0.784368 11.7112 0.790527 11.6873C0.795123 11.6694 0.798801 11.6512 0.804199 11.6335C0.808452 11.6196 0.814127 11.6062 0.818848 11.5925C0.878635 11.4186 0.976968 11.2548 1.11572 11.116L9.11572 3.11597Z" fill="#1B1B1B"/>
</g>
<defs>
<clipPath id="clip0_146_183">
<rect width="24" height="24" fill="white"/>
</clipPath>
</defs>
</svg>
