<svg width="19" height="19" viewBox="0 0 19 19" fill="none" xmlns="http://www.w3.org/2000/svg">
<g clip-path="url(#clip0_956_6273)">
<path d="M10.094 0.723633C10.1071 0.724945 10.12 0.727638 10.1331 0.729492C10.3412 0.758817 10.5274 0.855367 10.6692 0.99707L17.3362 7.66406C17.7058 8.03384 17.7058 8.63316 17.3362 9.00293C16.9664 9.37253 16.3671 9.37253 15.9973 9.00293L10.9475 3.95312V18.334C10.9472 18.8566 10.5229 19.2801 10.0002 19.2803C9.47746 19.2803 9.05333 18.8567 9.05298 18.334V3.95215L4.00317 9.00293C3.6334 9.37253 3.0331 9.37253 2.66333 9.00293C2.29395 8.6332 2.29395 8.03379 2.66333 7.66406L9.33032 0.99707C9.46382 0.863574 9.63676 0.769382 9.83032 0.734375C9.83679 0.733193 9.84335 0.732493 9.84985 0.731445C9.89874 0.723656 9.94917 0.719727 10.0002 0.719727L10.094 0.723633Z" fill="#1B1B1B"/>
</g>
<defs>
<clipPath id="clip0_956_6273">
<rect width="18.1818" height="18.1818" fill="white"/>
</clipPath>
</defs>
</svg>
