<svg width="20" height="20" viewBox="0 0 20 20" fill="none" xmlns="http://www.w3.org/2000/svg">
<path fill-rule="evenodd" clip-rule="evenodd" d="M12.7781 15.5547C12.7781 16.2914 12.4856 16.9986 11.9646 17.5195C11.4437 18.0404 10.7365 18.333 9.9998 18.333C9.26331 18.3329 8.55676 18.0403 8.03593 17.5195C7.515 16.9986 7.22245 16.2914 7.22245 15.5547H12.7781ZM9.9998 1.66602C13.068 1.66602 15.5555 4.15343 15.5555 7.22168V10.9033C15.5555 10.9175 15.5589 10.9316 15.5652 10.9443L16.7371 13.2891C17.0449 13.9047 16.5973 14.6289 15.909 14.6289H4.09062C3.40248 14.6288 2.95486 13.9046 3.26249 13.2891L4.43437 10.9443C4.44072 10.9316 4.44413 10.9176 4.44413 10.9033V7.22168C4.44413 4.15352 6.93167 1.66616 9.9998 1.66602Z" fill="currentColor"/>
</svg>
