<svg width="14" height="17" viewBox="0 0 14 17" fill="none" xmlns="http://www.w3.org/2000/svg">
<path fill-rule="evenodd" clip-rule="evenodd" d="M9.61448 13.8887C9.61448 14.6254 9.32194 15.3326 8.80101 15.8535C8.28008 16.3744 7.57284 16.667 6.83616 16.667C6.09967 16.6669 5.39313 16.3742 4.87229 15.8535C4.35136 15.3326 4.05882 14.6254 4.05882 13.8887H9.61448ZM6.83616 0C9.90441 0 12.3918 2.48741 12.3918 5.55566V9.2373C12.3918 9.2515 12.3953 9.2656 12.4016 9.27832L13.5735 11.623C13.8813 12.2387 13.4337 12.9629 12.7453 12.9629H0.926982C0.238846 12.9627 -0.208779 12.2386 0.098857 11.623L1.27073 9.27832C1.27708 9.26554 1.2805 9.25158 1.2805 9.2373V5.55566C1.2805 2.4875 3.76804 0.000144106 6.83616 0Z" fill="currentColor"/>
</svg>
