<svg width="20" height="20" viewBox="0 0 20 20" fill="none" xmlns="http://www.w3.org/2000/svg">
<path d="M17.6666 15C18.0348 15.0001 18.3336 15.2988 18.3336 15.667V16.833C18.3336 17.2012 18.0348 17.4999 17.6666 17.5H2.33362C1.96543 17.5 1.66663 17.2012 1.66663 16.833V15.667C1.66663 15.2988 1.96543 15 2.33362 15H17.6666ZM9.99963 2.5C13.2212 2.5 15.8334 5.1115 15.8336 8.33301V13.333C15.8336 13.7932 15.4599 14.167 14.9996 14.167H4.99963C4.53949 14.1669 4.16663 13.7932 4.16663 13.333V8.33301C4.1668 5.11157 6.77818 2.50011 9.99963 2.5Z" fill="#6D6D6D"/>
</svg>
