<svg width="20" height="20" viewBox="0 0 20 20" fill="none" xmlns="http://www.w3.org/2000/svg">
<path d="M9.99908 2.5C14.1412 2.5 17.4991 5.85786 17.4991 10C17.4991 14.1421 14.1412 17.5 9.99908 17.5C5.8571 17.4998 2.49908 14.142 2.49908 10C2.49908 5.85797 5.8571 2.50018 9.99908 2.5ZM6.50592 14.6709C7.47968 15.4003 8.6887 15.8329 9.99908 15.833C13.2207 15.833 15.8321 13.2217 15.8321 10C15.8321 8.68945 15.4005 7.47972 14.671 6.50586L6.50592 14.6709ZM9.99908 4.16699C6.77757 4.16717 4.16608 6.77845 4.16608 10C4.16608 11.3101 4.59808 12.5195 5.32721 13.4932L13.4922 5.32812C12.5186 4.59902 11.3092 4.16699 9.99908 4.16699Z" fill="#6D6D6D"/>
</svg>
