<svg width="20" height="20" viewBox="0 0 20 20" fill="none" xmlns="http://www.w3.org/2000/svg">
<path d="M5 1.66675C5.46016 1.66675 5.83385 2.03963 5.83398 2.49976V3.33374H14.167V2.49976C14.1671 2.03975 14.54 1.66693 15 1.66675C15.4602 1.66675 15.8339 2.03963 15.834 2.49976V3.33374H17.5C17.9602 3.33374 18.334 3.70651 18.334 4.16675V17.4998L18.3291 17.5847C18.2865 18.005 17.9315 18.3328 17.5 18.3328H2.5C2.06859 18.3326 1.71343 18.005 1.6709 17.5847L1.66699 17.4998V4.16675C1.66699 3.70663 2.03992 3.33393 2.5 3.33374H4.16699V2.49976C4.16712 2.03975 4.54 1.66693 5 1.66675ZM3.33398 16.6667H16.667V8.33374H3.33398V16.6667ZM6.66699 11.6667H5V9.99976H6.66699V11.6667ZM10.834 11.6667H9.16699V9.99976H10.834V11.6667ZM15 11.6667H13.334V9.99976H15V11.6667Z" fill="currentColor"/>
</svg>
