<svg width="17" height="14" viewBox="0 0 17 14" fill="none" xmlns="http://www.w3.org/2000/svg">
<path d="M11.667 0C11.929 8.97743e-05 12.1757 0.123511 12.333 0.333008L13.333 1.66699H15.833C16.2931 1.66699 16.6668 2.03991 16.667 2.5V12.5C16.6669 12.9601 16.2932 13.334 15.833 13.334H0.833008C0.373019 13.3338 0.000131938 12.96 0 12.5V2.5C0.000175965 2.04003 0.373047 1.66719 0.833008 1.66699H3.33301L4.33301 0.333008C4.49038 0.123232 4.73775 1.23928e-05 5 0H11.667ZM8.33301 3.96777C6.38246 3.96799 4.80096 5.54945 4.80078 7.5C4.80091 9.45059 6.38244 11.032 8.33301 11.0322C10.2838 11.0322 11.8651 9.45073 11.8652 7.5C11.8651 5.54931 10.2837 3.96777 8.33301 3.96777ZM8.33301 5C9.71369 5 10.833 6.11933 10.833 7.5C10.833 8.88071 9.71372 10 8.33301 10C6.95246 9.9998 5.83301 8.88059 5.83301 7.5C5.83305 6.11945 6.95249 5.0002 8.33301 5Z" fill="currentColor"/>
</svg>
