<svg width="20" height="20" viewBox="0 0 20 20" fill="none" xmlns="http://www.w3.org/2000/svg">
<path d="M13.3337 3.33325C13.5957 3.33334 13.8424 3.45676 13.9998 3.66626L14.9998 5.00024H17.4998C17.9599 5.00024 18.3336 5.37316 18.3337 5.83325V15.8333C18.3336 16.2934 17.9599 16.6672 17.4998 16.6672H2.49976C2.03977 16.667 1.66688 16.2933 1.66675 15.8333V5.83325C1.66692 5.37329 2.0398 5.00044 2.49976 5.00024H4.99976L5.99976 3.66626C6.15713 3.45648 6.4045 3.33326 6.66675 3.33325H13.3337ZM9.99976 7.30103C8.04921 7.30125 6.46771 8.8827 6.46753 10.8333C6.46766 12.7838 8.04918 14.3653 9.99976 14.3655C11.9505 14.3655 13.5319 12.784 13.532 10.8333C13.5318 8.88256 11.9505 7.30103 9.99976 7.30103ZM9.99976 8.33325C11.3804 8.33325 12.4997 9.45258 12.4998 10.8333C12.4998 12.214 11.3805 13.3333 9.99976 13.3333C8.61921 13.3331 7.49976 12.2138 7.49976 10.8333C7.4998 9.4527 8.61924 8.33345 9.99976 8.33325Z" fill="currentColor"/>
</svg>
