<svg width="24" height="24" viewBox="0 0 24 24" fill="none" xmlns="http://www.w3.org/2000/svg">
<path d="M12 2C17.5228 2 21.9999 6.47721 22 12C22 17.5228 17.5228 22 12 22C6.47718 22 2 17.5228 2 12C2.00007 6.47723 6.47722 2.00003 12 2ZM16.707 9.29297C16.3165 8.90244 15.6835 8.90244 15.293 9.29297L11 13.5859L8.70703 11.293C8.31651 10.9024 7.68349 10.9024 7.29297 11.293C6.90244 11.6835 6.90244 12.3165 7.29297 12.707L10.293 15.707C10.6835 16.0976 11.3165 16.0976 11.707 15.707L16.707 10.707C17.0976 10.3165 17.0976 9.68349 16.707 9.29297Z" fill="#0194E9"/>
</svg>
