<svg viewBox="0 0 71 78" fill="none" xmlns="http://www.w3.org/2000/svg">
<path d="M48.8379 42C57.4042 42 65.0198 47.4555 67.7754 55.5664L70.791 64.4463C61.4068 72.8724 49.0003 78 35.3955 78C21.7907 78 9.38423 72.8724 0 64.4463L3.01562 55.5664C5.77119 47.4554 13.3868 42 21.9531 42H48.8379ZM35.3955 0C36.3393 0 36.8114 -0.000359153 37.2197 0.0205078C44.8338 0.409954 51.1155 6.11811 52.2305 13.6602C52.2903 14.0647 52.3356 14.5348 52.4258 15.4746L52.5811 17.0869C52.7032 18.3595 52.7636 18.9959 52.7793 19.5225C53.0362 28.1311 46.4327 35.3993 37.8389 35.9658C37.3133 36.0005 36.6739 36 35.3955 36C34.1171 36 33.4778 36.0005 32.9521 35.9658C24.3583 35.3993 17.7548 28.1311 18.0117 19.5225C18.0274 18.9959 18.0878 18.3595 18.21 17.0869L18.3652 15.4746C18.4554 14.5348 18.5007 14.0647 18.5605 13.6602C19.6755 6.11811 25.9572 0.409954 33.5713 0.0205078C33.9796 -0.000359175 34.4517 0 35.3955 0Z" fill="#D3D3D3"/>
</svg>
