<svg viewBox="0 0 71 77" fill="none" xmlns="http://www.w3.org/2000/svg">
<path d="M48.8389 41C57.4053 41 65.0209 46.4552 67.7764 54.5664L70.792 63.4463C61.4078 71.8722 49.0012 77 35.3965 77C21.7915 77 9.38427 71.8725 0 63.4463L3.0166 54.5664C5.77205 46.4552 13.3876 41 21.9541 41H48.8389ZM53.5029 0.178711C55.2817 -0.585286 57.9877 1.23368 57.6172 3.13379L55.0664 16.208C55.1862 16.998 55.2963 18.0062 55.4609 19.5459L55.8965 23.6221C56.7696 30.6069 51.3233 36.7772 44.2842 36.7773H26.4375C19.3408 36.777 13.7707 30.6912 14.3965 23.6221L14.9756 19.1162C15.2558 16.9344 15.3956 15.8429 15.6201 14.9092C15.6922 14.6093 15.7745 14.3128 15.8613 14.0195L13.7383 3.13379C13.368 1.23382 16.0748 -0.584969 17.8535 0.178711C18.9835 0.664024 20.3099 1.15825 21.8457 1.62207C23.4134 2.09549 24.8681 2.41814 26.1729 2.63672C27.6724 2.02649 29.2723 1.61465 30.9375 1.43359C31.8922 1.32983 32.9926 1.3291 35.1924 1.3291C37.4355 1.3291 38.5577 1.3297 39.5264 1.43652C41.2754 1.62947 42.9502 2.07826 44.5127 2.74219C45.9829 2.52702 47.668 2.1782 49.5098 1.62207C51.0458 1.15821 52.3728 0.664075 53.5029 0.178711Z" fill="#D3D3D3"/>
</svg>
