<svg width="20" height="20" viewBox="0 0 20 20" fill="none" xmlns="http://www.w3.org/2000/svg">
<path fill-rule="evenodd" clip-rule="evenodd" d="M16.764 1.76408C17.1708 1.35729 17.8298 1.35729 18.2366 1.76408C18.6432 2.1709 18.6434 2.83002 18.2366 3.23674L11.473 10.0004L18.2366 16.7641C18.6432 17.1709 18.6434 17.83 18.2366 18.2367C17.8299 18.6433 17.1707 18.6432 16.764 18.2367L10.0003 11.4731L3.23664 18.2367C2.82991 18.6433 2.17074 18.6433 1.76399 18.2367C1.35725 17.83 1.35738 17.1709 1.76399 16.7641L8.52766 10.0004L1.76399 3.23674C1.35725 2.83 1.35738 2.17089 1.76399 1.76408C2.17078 1.35729 2.82985 1.35729 3.23664 1.76408L10.0003 8.52775L16.764 1.76408Z" fill="currentColor"/>
</svg>
