<svg width="18" height="18" viewBox="0 0 18 18" fill="none" xmlns="http://www.w3.org/2000/svg">
<path d="M7.5 0C11.6421 0 15 3.35786 15 7.5C15 9.20494 14.429 10.7754 13.4707 12.0352C13.5348 12.0757 13.5955 12.1238 13.6514 12.1797L17.4023 15.9297C17.8089 16.3365 17.8081 16.9966 17.4014 17.4033C16.9946 17.8098 16.3355 17.8098 15.9287 17.4033L12.1777 13.6533C12.122 13.5976 12.0746 13.5366 12.0342 13.4727C10.7747 14.4303 9.20424 15 7.5 15C3.35786 15 0 11.6421 0 7.5C0 3.35786 3.35786 0 7.5 0ZM7.5 2.08301C4.50846 2.08301 2.08301 4.50846 2.08301 7.5C2.08301 10.4915 4.50846 12.917 7.5 12.917C10.4915 12.917 12.917 10.4915 12.917 7.5C12.917 4.50846 10.4915 2.08301 7.5 2.08301Z" fill="currentColor"/>
</svg>
