<svg width="16" height="16" viewBox="0 0 16 16" fill="none" xmlns="http://www.w3.org/2000/svg">
<g clip-path="url(#clip0_170_9251)">
<path d="M4.5001 1.93774C6.41313 0.833562 8.85964 1.48902 9.96421 3.40185C10.9561 5.12013 10.5274 7.26762 9.04398 8.48766C9.05454 8.50288 9.06746 8.51661 9.07689 8.53294L10.0788 10.2684L11.24 9.59796C11.5589 9.41401 11.9658 9.52295 12.1498 9.84174C12.3338 10.1605 12.2251 10.5682 11.9065 10.7524L10.7449 11.4219L11.7442 13.151C11.9283 13.4698 11.8189 13.878 11.5001 14.0621C11.1813 14.2461 10.7731 14.1368 10.589 13.818L9.59044 12.0884L8.44194 12.7515C8.12317 12.9355 7.71542 12.8269 7.5313 12.5082C7.34733 12.1894 7.45712 11.782 7.77593 11.598L8.92527 10.9344L7.92332 9.19896C7.91395 9.18273 7.90757 9.16495 7.89971 9.14831C6.16405 9.79915 4.17182 9.16747 3.14326 7.57785L3.03516 7.40233C1.96507 5.54884 2.54793 3.19394 4.32494 2.04451L4.5001 1.93774ZM5.16661 3.09216C3.89142 3.82862 3.45414 5.46001 4.19042 6.73534C4.92677 8.01068 6.5582 8.44772 7.8336 7.71153C9.10882 6.97508 9.54607 5.3437 8.80979 4.06835C8.07346 2.79306 6.44198 2.35609 5.16661 3.09216Z" fill="#FE164C"/>
</g>
<defs>
<clipPath id="clip0_170_9251">
<rect width="16" height="16" fill="white"/>
</clipPath>
</defs>
</svg>
