<svg width="16" height="16" viewBox="0 0 16 16" fill="none" xmlns="http://www.w3.org/2000/svg">
<path d="M10.9204 2.66699C12.6213 2.66713 14.0005 4.04626 14.0005 5.74707C14.0004 5.95 13.9801 6.14935 13.9419 6.34375L13.939 6.35547L13.937 6.36719C13.6833 7.96012 12.9956 8.81719 11.3472 10.5537C10.5164 11.4288 9.36928 12.2854 8.42725 12.9238L8.00049 13.2031L7.57373 12.9238C6.63158 12.2854 5.48367 11.4289 4.65283 10.5537C3.00445 8.81727 2.31667 7.96008 2.06299 6.36719L2.05908 6.34375L2.01514 6.04883C2.0052 5.94926 2.00051 5.84861 2.00049 5.74707C2.00049 4.04629 3.37968 2.66712 5.08057 2.66699C6.02607 2.66721 6.87114 3.09308 7.43701 3.76562C7.73074 4.1147 8.26915 4.11454 8.56299 3.76562C9.12894 3.09295 9.97468 2.66707 10.9204 2.66699Z" fill="#EA0137" stroke="#EA0137" stroke-width="1.33333"/>
</svg>
