<svg width="16" height="16" viewBox="0 0 16 16" fill="none" xmlns="http://www.w3.org/2000/svg">
<g clip-path="url(#clip0_170_9684)">
<path fill-rule="evenodd" clip-rule="evenodd" d="M11.3832 1.88457C11.5066 1.92688 11.6161 2.00484 11.6965 2.10945C11.7043 2.11965 11.7102 2.13118 11.7174 2.14177C11.7581 2.20164 11.7918 2.26784 11.8117 2.34168L12.787 5.98438C12.8823 6.34002 12.6705 6.7069 12.3148 6.80219C11.9595 6.89684 11.5944 6.68543 11.4992 6.33016L10.9394 4.2411L9.07714 7.46671C9.0679 7.48269 9.05504 7.49621 9.04472 7.51114C10.5283 8.73127 10.9564 10.8795 9.96445 12.5978L9.85719 12.7738C8.74474 14.493 6.50423 15.0934 4.68124 14.1607L4.50035 14.0619C2.6472 12.9918 1.97452 10.663 2.93829 8.77918L3.03576 8.59864C4.02754 6.88084 6.10145 6.17639 7.8996 6.85C7.90737 6.83359 7.91349 6.81621 7.92272 6.8002L9.78551 3.57375L7.69681 4.13484C7.34134 4.2299 6.97604 4.01905 6.88068 3.66365C6.78549 3.30827 6.99585 2.94263 7.35103 2.84704L10.9942 1.87085C11.0353 1.85984 11.0776 1.853 11.1202 1.84997L11.1272 1.84952C11.1472 1.8483 11.1672 1.85077 11.187 1.85136C11.2088 1.852 11.2308 1.8503 11.2525 1.85311C11.2735 1.85582 11.2937 1.86264 11.3142 1.86731C11.3372 1.87254 11.3606 1.87679 11.3832 1.88457ZM7.83385 8.28812C6.55851 7.5518 4.92713 7.9891 4.19067 9.2643C3.45453 10.5397 3.89154 12.1711 5.16685 12.9075C6.44222 13.6438 8.07362 13.2066 8.81003 11.9313C9.54623 10.6559 9.10918 9.02447 7.83385 8.28812Z" fill="#0194E9"/>
</g>
<defs>
<clipPath id="clip0_170_9684">
<rect width="16" height="16" fill="white"/>
</clipPath>
</defs>
</svg>
