<svg width="20" height="20" viewBox="0 0 20 20" xmlns="http://www.w3.org/2000/svg">
<path d="M10.4167 15.833C11.1069 15.833 11.6665 16.3928 11.6667 17.083C11.6667 17.7734 11.107 18.333 10.4167 18.333C9.72638 18.3329 9.16666 17.7733 9.16666 17.083C9.16683 16.3929 9.72648 15.8331 10.4167 15.833ZM10.4167 9.16699C11.107 9.16699 11.6667 9.72664 11.6667 10.417C11.6665 11.1072 11.1069 11.667 10.4167 11.667C9.72648 11.6669 9.16683 11.1071 9.16666 10.417C9.16666 9.72669 9.72638 9.16708 10.4167 9.16699ZM10.4167 2.5C11.107 2.5 11.6667 3.05964 11.6667 3.75C11.6667 4.44036 11.107 5 10.4167 5C9.7263 5 9.16666 4.44036 9.16666 3.75C9.16666 3.05964 9.7263 2.5 10.4167 2.5Z" fill="currentColor"/>
</svg>
