<svg width="17" height="17" viewBox="0 0 17 17" fill="none" xmlns="http://www.w3.org/2000/svg">
<path fill-rule="evenodd" clip-rule="evenodd" d="M11.0898 8.97461C12.9202 8.97461 14.5479 10.1399 15.1367 11.873L16.3906 15.5654C16.574 16.1058 16.1722 16.667 15.6015 16.667H0.833934C0.263207 16.667 -0.138547 16.1058 0.0448718 15.5654L1.29878 11.873C1.88756 10.1399 3.51522 8.97461 5.34565 8.97461H11.0898ZM8.60737 0.00488281C10.2343 0.088146 11.5762 1.30743 11.8144 2.91895C11.8272 3.00536 11.8371 3.1059 11.8564 3.30664L11.8896 3.65137C11.9157 3.92309 11.9282 4.05941 11.9316 4.17188C11.9863 6.01117 10.5754 7.56352 8.73921 7.68457C8.62699 7.69195 8.49047 7.69238 8.21772 7.69238C7.94451 7.69238 7.80759 7.69198 7.69526 7.68457C5.85911 7.56351 4.44819 6.01116 4.50288 4.17188C4.50624 4.0594 4.51977 3.92313 4.54585 3.65137L4.57807 3.30664C4.59733 3.10594 4.6073 3.00535 4.62007 2.91895C4.85829 1.30755 6.20037 0.0883042 7.8271 0.00488281C7.91436 0.000419485 8.01598 0 8.21772 0C8.41926 1.18251e-09 8.52015 0.000421783 8.60737 0.00488281Z" fill="currentColor"/>
</svg>
