<svg width="24" height="24" viewBox="0 0 24 24" xmlns="http://www.w3.org/2000/svg">
<g clip-path="url(#clip0_908_11027)">
<path d="M11.9999 0.75C12.6902 0.75 13.2498 1.30974 13.2499 2V10.75H21.9999C22.6902 10.75 23.2498 11.3097 23.2499 12C23.2499 12.6904 22.6903 13.25 21.9999 13.25H13.2499V22C13.2499 22.6904 12.6903 23.25 11.9999 23.25C11.3096 23.25 10.7499 22.6903 10.7499 22V13.25H1.99991C1.30959 13.25 0.749908 12.6903 0.749908 12C0.74997 11.3097 1.30963 10.75 1.99991 10.75H10.7499V2C10.75 1.30976 11.3097 0.75004 11.9999 0.75Z" fill="currentColor"/>
</g>
<defs>
<clipPath id="clip0_908_11027">
<rect width="24" height="24" fill="white"/>
</clipPath>
</defs>
</svg>
