<svg width="16" height="16" viewBox="0 0 16 16" fill="none" xmlns="http://www.w3.org/2000/svg">
<path d="M8.00049 1.33398C11.6822 1.33416 14.6665 4.31919 14.6665 8.00098C14.6663 11.6826 11.6821 14.6668 8.00049 14.667C4.3187 14.667 1.33367 11.6827 1.3335 8.00098C1.3335 4.31908 4.31859 1.33398 8.00049 1.33398ZM7.99951 3.62988C7.6684 3.63019 7.3999 3.89831 7.3999 4.22949V7.40137H4.229C3.89768 7.40142 3.62939 7.66964 3.62939 8.00098C3.62961 8.33213 3.89782 8.60053 4.229 8.60059H7.3999V11.7715C7.39999 12.1026 7.66846 12.3718 7.99951 12.3721C8.33083 12.3721 8.59903 12.1028 8.59912 11.7715V8.60059H11.771C12.1021 8.60044 12.3714 8.33207 12.3716 8.00098C12.3716 7.66969 12.1022 7.40151 11.771 7.40137H8.59912V4.22949C8.59912 3.89812 8.33088 3.62988 7.99951 3.62988Z" fill="currentColor"/>
</svg>
