<svg width="20" height="20" viewBox="0 0 20 20" fill="none" xmlns="http://www.w3.org/2000/svg">
<path d="M8.64697 1.146C12.7891 1.146 16.147 4.50386 16.147 8.646C16.147 10.3509 15.576 11.9214 14.6177 13.1812C14.6818 13.2217 14.7424 13.2698 14.7983 13.3257L18.5493 17.0757C18.9559 17.4825 18.9551 18.1426 18.5483 18.5493C18.1416 18.9558 17.4824 18.9558 17.0757 18.5493L13.3247 14.7993C13.269 14.7436 13.2216 14.6826 13.1812 14.6187C11.9217 15.5763 10.3512 16.146 8.64697 16.146C4.50484 16.146 1.14697 12.7881 1.14697 8.646C1.14697 4.50386 4.50484 1.146 8.64697 1.146ZM8.64697 3.229C5.65543 3.229 3.22998 5.65445 3.22998 8.646C3.22998 11.6375 5.65543 14.063 8.64697 14.063C11.6385 14.063 14.064 11.6375 14.064 8.646C14.064 5.65445 11.6385 3.229 8.64697 3.229Z" fill="currentColor"/>
</svg>
