<svg width="44" height="44" viewBox="0 0 44 44" xmlns="http://www.w3.org/2000/svg">
<path d="M22.5164 12.9219C22.7881 12.9219 23.0564 12.9204 23.281 12.9463C23.5243 12.9743 23.7912 13.0409 24.0417 13.2227C24.2923 13.4035 24.4387 13.6358 24.5417 13.8574C24.6368 14.062 24.7203 14.3158 24.8064 14.5742L25.0759 15.3789C25.1453 15.5568 25.2678 15.709 25.4275 15.8135L25.6589 15.9453C25.8476 16.0418 26.064 16.0692 26.2722 16.0215L27.2556 15.7441L27.6687 15.6309C27.8021 15.5964 27.9303 15.5667 28.0486 15.5479C28.3044 15.5072 28.5976 15.4997 28.9031 15.624C29.209 15.7481 29.415 15.9582 29.571 16.167C29.7151 16.3597 29.8573 16.608 30.0037 16.8623H30.0027L30.4148 17.5752V17.5762C30.5519 17.8143 30.6879 18.0472 30.7781 18.2559C30.8761 18.4827 30.952 18.7479 30.9197 19.0566C30.8872 19.3658 30.757 19.61 30.614 19.8115C30.4822 19.9972 30.3015 20.1974 30.1179 20.4014L30.1169 20.4004L29.2869 21.3271C29.1997 21.4409 29.0917 21.7296 29.0916 22.0059C29.0916 22.2782 29.1974 22.562 29.2849 22.6797L30.1179 23.6104C30.3011 23.8143 30.4823 24.0139 30.614 24.1992C30.7393 24.3755 30.8545 24.5847 30.9031 24.8418L30.9197 24.9541L30.9265 25.0684C30.9323 25.3298 30.863 25.5584 30.7771 25.7568C30.6869 25.965 30.5505 26.1965 30.4138 26.4336L30.4148 26.4346L30.0037 27.1494C29.8573 27.4032 29.7149 27.6522 29.571 27.8447C29.4153 28.0531 29.2104 28.2621 28.906 28.3867L28.9041 28.3877C28.5985 28.5119 28.3053 28.5047 28.0486 28.4639C27.8116 28.4262 27.537 28.3466 27.2556 28.2666V28.2656L26.2673 27.9873C26.0635 27.9422 25.8504 27.9691 25.6609 28.0635L25.4333 28.1934C25.2716 28.2967 25.1479 28.4489 25.0779 28.627L24.8054 29.4385C24.7199 29.6963 24.6364 29.9491 24.5417 30.1533C24.4387 30.3755 24.2926 30.6079 24.0427 30.7891C23.7916 30.9709 23.5235 31.0366 23.28 31.0645C23.0557 31.0901 22.788 31.0898 22.5164 31.0898H21.5876C21.3159 31.0898 21.049 31.0909 20.825 31.0654C20.5817 31.0377 20.3149 30.9719 20.0642 30.792L20.0603 30.7891C19.8112 30.6077 19.6653 30.3753 19.5623 30.1533C19.4673 29.9487 19.3838 29.695 19.2976 29.4365V29.4355L19.03 28.6357C18.9605 28.4539 18.8343 28.299 18.6707 28.1943H18.6697L18.4451 28.0645C18.2574 27.9701 18.0428 27.9425 17.8376 27.9873L16.8494 28.2656L16.8503 28.2666C16.5682 28.3467 16.2927 28.4263 16.0554 28.4639C15.7979 28.5045 15.5058 28.5103 15.2009 28.3867C14.895 28.2626 14.689 28.0534 14.533 27.8447C14.389 27.6522 14.2476 27.4032 14.1013 27.1494L13.6892 26.4355C13.5519 26.1974 13.4172 25.9648 13.3269 25.7559C13.229 25.5291 13.1528 25.263 13.1853 24.9541C13.2179 24.645 13.3482 24.4012 13.491 24.2002C13.6226 24.0148 13.8026 23.8146 13.9861 23.6104L14.8201 22.6787C14.9066 22.5614 15.0125 22.2779 15.0125 22.0059C15.0123 21.732 14.9058 21.4473 14.8191 21.332L13.9851 20.3994V20.3984C13.8024 20.1951 13.6223 19.9963 13.491 19.8115C13.3479 19.6102 13.2178 19.3663 13.1853 19.0566C13.1528 18.7471 13.2289 18.4811 13.3269 18.2549C13.4172 18.0466 13.5533 17.814 13.6902 17.5762L14.1013 16.8623V16.8613C14.2475 16.6078 14.3891 16.3594 14.533 16.167C14.6695 15.9845 14.8443 15.8009 15.0906 15.6748L15.2009 15.624C15.5062 15.5002 15.7991 15.5073 16.0554 15.5479C16.2922 15.5854 16.5677 15.6646 16.8494 15.7441L17.8328 16.0225C18.039 16.0689 18.2551 16.042 18.4431 15.9473L18.6726 15.8145C18.8333 15.7107 18.9568 15.5596 19.0271 15.3818L19.2986 14.5742L19.4275 14.1963C19.4708 14.0752 19.515 13.9604 19.5623 13.8584C19.6648 13.6373 19.8112 13.4046 20.0613 13.2236C20.3122 13.0417 20.5798 12.9744 20.824 12.9463C21.0486 12.9205 21.316 12.9219 21.5876 12.9219H22.5164ZM21.5876 14.4219C21.2816 14.4219 21.1149 14.4229 20.9958 14.4365C20.9751 14.4389 20.9588 14.4422 20.947 14.4443C20.9412 14.455 20.9327 14.4697 20.9236 14.4893C20.8728 14.5989 20.8186 14.7574 20.7214 15.0488V15.0498L20.4431 15.8818L20.4382 15.8975L20.4314 15.9131C20.2464 16.394 19.9123 16.8033 19.4783 17.0811L19.4646 17.0898L19.45 17.0986L19.1687 17.2607L19.1531 17.2705L19.1365 17.2793C18.6304 17.5395 18.0474 17.6112 17.4939 17.4844L17.4763 17.4805L17.4578 17.4756L16.4412 17.1875C16.1241 17.098 15.9496 17.0497 15.821 17.0293C15.7989 17.0258 15.7812 17.0255 15.7683 17.0244C15.7598 17.0342 15.7475 17.0476 15.7341 17.0654C15.6954 17.1173 15.6532 17.1824 15.6003 17.2695L15.4011 17.6104L14.99 18.3242C14.8355 18.5926 14.7523 18.7398 14.7039 18.8516C14.6952 18.8715 14.6904 18.8878 14.6863 18.8994C14.6927 18.91 14.7008 18.9253 14.7136 18.9434C14.7487 18.9927 14.794 19.0488 14.8562 19.1211L15.1023 19.3984L15.1033 19.3994L15.9626 20.3604L15.9783 20.377L15.9919 20.3955C16.3242 20.8162 16.5124 21.4518 16.5125 22.0059C16.5125 22.5599 16.3243 23.195 15.9939 23.6152L15.9792 23.6348L15.9626 23.6523L15.1033 24.6123L15.1023 24.6133C14.8961 24.8428 14.784 24.9693 14.7136 25.0684C14.7006 25.0867 14.6918 25.1016 14.6853 25.1123C14.6894 25.1241 14.695 25.1406 14.7039 25.1611C14.7519 25.2724 14.835 25.4194 14.989 25.6865L15.4011 26.4004C15.5655 26.6855 15.6563 26.8422 15.7341 26.9463C15.7474 26.9641 15.7598 26.9765 15.7683 26.9863C15.7812 26.9852 15.7987 26.985 15.821 26.9814C15.9489 26.9612 16.1235 26.9131 16.4402 26.8232H16.4412L17.4587 26.5371L17.4763 26.5312L17.4949 26.5273C18.0491 26.4006 18.6306 26.473 19.1365 26.7324L19.1531 26.7412L19.1697 26.751L19.449 26.9121L19.4783 26.9297C19.9141 27.2082 20.2476 27.6197 20.4314 28.1006L20.4373 28.1152L20.4421 28.1299L20.7205 28.9609V28.9619C20.8175 29.2531 20.8716 29.4126 20.9226 29.5225C20.9312 29.5409 20.9393 29.5548 20.9451 29.5654C20.9571 29.5677 20.9734 29.5718 20.9949 29.5742C21.1145 29.5878 21.2816 29.5898 21.5876 29.5898H22.5164C22.8227 29.5898 22.9906 29.5879 23.1101 29.5742C23.1301 29.5719 23.1454 29.5675 23.157 29.5654C23.1628 29.5548 23.1726 29.5414 23.1814 29.5225C23.2321 29.4131 23.2861 29.2538 23.3826 28.9629L23.3835 28.9609L23.6628 28.1299L23.6677 28.1152L23.6726 28.1016C23.8566 27.6186 24.1913 27.2079 24.6267 26.9297L24.6404 26.9209L24.655 26.9121L24.9353 26.751L24.9519 26.7412L24.9685 26.7324C25.411 26.506 25.9109 26.421 26.4021 26.4893L26.6121 26.5273L26.6472 26.5371L27.6638 26.8232L27.6648 26.8242C27.9813 26.9141 28.1559 26.962 28.2839 26.9824C28.305 26.9858 28.3221 26.9852 28.3347 26.9863C28.3433 26.9764 28.3565 26.9642 28.3699 26.9463C28.4088 26.8941 28.4515 26.8289 28.5046 26.7412L28.7039 26.4004L29.114 25.6875L29.115 25.6865C29.2695 25.4186 29.3528 25.2716 29.4011 25.1602C29.4099 25.1398 29.4136 25.123 29.4177 25.1113C29.4113 25.1008 29.4039 25.086 29.3914 25.0684C29.321 24.9693 29.2084 24.8434 29.0017 24.6133V24.6123L28.1423 23.6523L28.1267 23.6348L28.1121 23.6162C27.7807 23.1954 27.5916 22.5607 27.5916 22.0059C27.5916 21.4517 27.7805 20.8166 28.1111 20.3965L28.1257 20.3779L28.1414 20.3604L29.0017 19.3994L29.0027 19.3975C29.2089 19.1684 29.3212 19.0421 29.3914 18.9434C29.404 18.9254 29.4113 18.91 29.4177 18.8994C29.4136 18.8877 29.4099 18.871 29.4011 18.8506C29.353 18.7392 29.2695 18.5926 29.115 18.3242V18.3232L28.7039 17.6113C28.5395 17.3257 28.4477 17.1686 28.3699 17.0645C28.3562 17.0462 28.3442 17.0333 28.3357 17.0234C28.323 17.0246 28.3057 17.0258 28.2839 17.0293C28.1553 17.0498 27.9806 17.0978 27.6628 17.1875L26.6462 17.4746L26.6287 17.4795L26.6111 17.4834C26.056 17.6115 25.4733 17.5392 24.9666 17.2773L24.9519 17.2695L24.9373 17.2607L24.656 17.0996L24.6404 17.0908L24.6257 17.0811C24.1919 16.803 23.8583 16.3931 23.6736 15.9121L23.6677 15.8975L23.6619 15.8818L23.3835 15.0498V15.0488C23.2865 14.7577 23.2323 14.5987 23.1814 14.4893C23.1721 14.4692 23.1629 14.455 23.157 14.4443C23.1453 14.4422 23.1295 14.4389 23.1091 14.4365C22.9899 14.4228 22.8226 14.4219 22.5164 14.4219H21.5876ZM22.0173 18.333C22.9896 18.3332 23.9226 18.7197 24.6101 19.4072C25.2974 20.0948 25.6833 21.0278 25.6833 22C25.6832 22.9722 25.2976 23.9053 24.6101 24.5928C23.9226 25.2803 22.9896 25.6658 22.0173 25.666C21.0451 25.666 20.1121 25.2801 19.4246 24.5928C18.737 23.9053 18.3505 22.9723 18.3503 22C18.3503 21.0275 18.7369 20.0949 19.4246 19.4072C20.1122 18.7196 21.0449 18.333 22.0173 18.333ZM22.0173 19.833C21.4427 19.833 20.8914 20.0615 20.4851 20.4678C20.0788 20.8741 19.8503 21.4254 19.8503 22C19.8505 22.5745 20.0789 23.126 20.4851 23.5322C20.8914 23.9382 21.443 24.166 22.0173 24.166C22.5917 24.1658 23.1434 23.9384 23.5496 23.5322C23.9557 23.126 24.1832 22.5744 24.1833 22C24.1833 21.4256 23.9555 20.874 23.5496 20.4678C23.1434 20.0616 22.5917 19.8332 22.0173 19.833Z" fill="currentColor"/>
</svg>
