<svg width="20" height="20" viewBox="0 0 20 20" fill="none" xmlns="http://www.w3.org/2000/svg">
<path d="M10.5164 0.921875C10.7881 0.921874 11.0564 0.920435 11.281 0.946289C11.5243 0.974318 11.7912 1.04094 12.0417 1.22266C12.2923 1.40346 12.4387 1.63576 12.5417 1.85742C12.6368 2.06197 12.7203 2.31581 12.8064 2.57422L13.0759 3.37891C13.1453 3.5568 13.2678 3.709 13.4275 3.81348L13.6589 3.94531C13.8476 4.04183 14.064 4.0692 14.2722 4.02148L15.2556 3.74414L15.6687 3.63086C15.8021 3.59644 15.9303 3.56667 16.0486 3.54785C16.3044 3.5072 16.5976 3.49965 16.9031 3.62402C17.209 3.74815 17.415 3.95819 17.571 4.16699C17.7151 4.35968 17.8573 4.60804 18.0037 4.8623H18.0027L18.4148 5.5752V5.57617C18.5519 5.81429 18.6879 6.04725 18.7781 6.25586C18.8761 6.48266 18.952 6.74788 18.9197 7.05664C18.8872 7.36579 18.757 7.61001 18.614 7.81152C18.4822 7.99722 18.3015 8.19742 18.1179 8.40137L18.1169 8.40039L17.2869 9.32715C17.1997 9.44087 17.0917 9.72961 17.0916 10.0059C17.0916 10.2782 17.1974 10.562 17.2849 10.6797L18.1179 11.6104C18.3011 11.8143 18.4823 12.0139 18.614 12.1992C18.7393 12.3755 18.8545 12.5847 18.9031 12.8418L18.9197 12.9541L18.9265 13.0684C18.9323 13.3298 18.863 13.5584 18.7771 13.7568C18.6869 13.965 18.5505 14.1965 18.4138 14.4336L18.4148 14.4346L18.0037 15.1494C17.8573 15.4032 17.7149 15.6522 17.571 15.8447C17.4153 16.0531 17.2104 16.2621 16.906 16.3867L16.9041 16.3877C16.5985 16.5119 16.3053 16.5047 16.0486 16.4639C15.8116 16.4262 15.537 16.3466 15.2556 16.2666V16.2656L14.2673 15.9873C14.0635 15.9422 13.8504 15.9691 13.6609 16.0635L13.4333 16.1934C13.2716 16.2967 13.1479 16.4489 13.0779 16.627L12.8054 17.4385C12.7199 17.6963 12.6364 17.9491 12.5417 18.1533C12.4387 18.3755 12.2926 18.6079 12.0427 18.7891C11.7916 18.9709 11.5235 19.0366 11.28 19.0645C11.0557 19.0901 10.788 19.0898 10.5164 19.0898H9.58765C9.31585 19.0898 9.04897 19.0909 8.82495 19.0654C8.5817 19.0377 8.31494 18.9719 8.06421 18.792L8.0603 18.7891C7.81119 18.6077 7.66532 18.3753 7.56226 18.1533C7.46732 17.9487 7.38378 17.695 7.29761 17.4365V17.4355L7.03003 16.6357C6.96047 16.4539 6.8343 16.299 6.67065 16.1943H6.66968L6.44507 16.0645C6.25737 15.9701 6.04283 15.9425 5.83765 15.9873L4.84937 16.2656L4.85034 16.2666C4.56817 16.3467 4.29273 16.4263 4.05542 16.4639C3.79792 16.5045 3.50579 16.5103 3.20093 16.3867C2.89497 16.2626 2.689 16.0534 2.53296 15.8447C2.38899 15.6522 2.24763 15.4032 2.10132 15.1494L1.68921 14.4355C1.55191 14.1974 1.41716 13.9648 1.3269 13.7559C1.229 13.5291 1.15279 13.263 1.1853 12.9541C1.21792 12.645 1.3482 12.4012 1.49097 12.2002C1.62264 12.0148 1.80263 11.8146 1.98608 11.6104L2.82007 10.6787C2.90656 10.5614 3.01245 10.2779 3.01245 10.0059C3.01235 9.73201 2.90579 9.44728 2.81909 9.33203L1.98511 8.39941V8.39844C1.80242 8.19507 1.62226 7.99628 1.49097 7.81152C1.34789 7.61016 1.21779 7.36627 1.1853 7.05664C1.15285 6.74709 1.2289 6.48106 1.3269 6.25488C1.4172 6.04659 1.55326 5.81404 1.69019 5.57617L2.10132 4.8623V4.86133C2.24749 4.60778 2.38913 4.35939 2.53296 4.16699C2.66946 3.98452 2.8443 3.80085 3.09058 3.6748L3.20093 3.62402C3.50618 3.50017 3.79914 3.50726 4.05542 3.54785C4.29223 3.5854 4.5677 3.66462 4.84937 3.74414L5.83276 4.02246C6.03903 4.06893 6.25514 4.04196 6.44312 3.94727L6.67261 3.81445C6.83325 3.71068 6.95681 3.55962 7.0271 3.38184L7.29858 2.57422L7.42749 2.19629C7.47082 2.07523 7.51498 1.96044 7.56226 1.8584C7.66478 1.63729 7.81117 1.40459 8.06128 1.22363C8.31225 1.04171 8.57976 0.974411 8.82397 0.946289C9.04855 0.920458 9.31601 0.921875 9.58765 0.921875H10.5164ZM9.58765 2.42188C9.28156 2.42188 9.11492 2.42287 8.99585 2.43652C8.9751 2.43891 8.9588 2.44216 8.94702 2.44434C8.94116 2.45498 8.93267 2.46969 8.92358 2.48926C8.87278 2.59893 8.81857 2.75742 8.72144 3.04883V3.0498L8.44312 3.88184L8.43823 3.89746L8.4314 3.91309C8.24637 4.39399 7.9123 4.80333 7.47827 5.08105L7.4646 5.08984L7.44995 5.09863L7.1687 5.26074L7.15308 5.27051L7.13647 5.2793C6.63044 5.53951 6.04736 5.61123 5.4939 5.48438L5.47632 5.48047L5.45776 5.47559L4.44116 5.1875C4.12413 5.09799 3.94956 5.04969 3.82104 5.0293C3.79889 5.02579 3.78124 5.02554 3.76831 5.02441C3.75984 5.03424 3.74752 5.04755 3.73413 5.06543C3.69539 5.11729 3.65318 5.18237 3.60034 5.26953L3.40112 5.61035L2.98999 6.32422C2.83552 6.59256 2.75232 6.73981 2.70386 6.85156C2.69522 6.87149 2.69038 6.88777 2.68628 6.89941C2.69273 6.91 2.70082 6.92534 2.71362 6.94336C2.74871 6.9927 2.79398 7.04884 2.8562 7.12109L3.10229 7.39844L3.10327 7.39941L3.96265 8.36035L3.97827 8.37695L3.99194 8.39551C4.32423 8.8162 4.51236 9.45181 4.51245 10.0059C4.51245 10.5599 4.32428 11.195 3.9939 11.6152L3.97925 11.6348L3.96265 11.6523L3.10327 12.6123L3.10229 12.6133C2.89612 12.8428 2.78402 12.9693 2.71362 13.0684C2.70063 13.0867 2.69179 13.1016 2.6853 13.1123C2.68941 13.1241 2.69498 13.1406 2.70386 13.1611C2.75191 13.2724 2.83498 13.4194 2.98901 13.6865L3.40112 14.4004C3.56548 14.6855 3.65631 14.8422 3.73413 14.9463C3.74745 14.9641 3.75984 14.9765 3.76831 14.9863C3.78121 14.9852 3.79874 14.985 3.82104 14.9814C3.94886 14.9612 4.12354 14.9131 4.44019 14.8232H4.44116L5.45874 14.5371L5.47632 14.5312L5.49487 14.5273C6.04907 14.4006 6.6306 14.473 7.13647 14.7324L7.15308 14.7412L7.16968 14.751L7.44897 14.9121L7.47827 14.9297C7.91409 15.2082 8.2476 15.6197 8.4314 16.1006L8.43726 16.1152L8.44214 16.1299L8.72046 16.9609V16.9619C8.81752 17.2531 8.87162 17.4126 8.92261 17.5225C8.93118 17.5409 8.93926 17.5548 8.94507 17.5654C8.95712 17.5677 8.97345 17.5718 8.99487 17.5742C9.1145 17.5878 9.28157 17.5898 9.58765 17.5898H10.5164C10.8227 17.5898 10.9906 17.5879 11.1101 17.5742C11.1301 17.5719 11.1454 17.5675 11.157 17.5654C11.1628 17.5548 11.1726 17.5414 11.1814 17.5225C11.2321 17.4131 11.2861 17.2538 11.3826 16.9629L11.3835 16.9609L11.6628 16.1299L11.6677 16.1152L11.6726 16.1016C11.8566 15.6186 12.1913 15.2079 12.6267 14.9297L12.6404 14.9209L12.655 14.9121L12.9353 14.751L12.9519 14.7412L12.9685 14.7324C13.411 14.506 13.9109 14.421 14.4021 14.4893L14.6121 14.5273L14.6472 14.5371L15.6638 14.8232L15.6648 14.8242C15.9813 14.9141 16.1559 14.962 16.2839 14.9824C16.305 14.9858 16.3221 14.9852 16.3347 14.9863C16.3433 14.9764 16.3565 14.9642 16.3699 14.9463C16.4088 14.8941 16.4515 14.8289 16.5046 14.7412L16.7039 14.4004L17.114 13.6875L17.115 13.6865C17.2695 13.4186 17.3528 13.2716 17.4011 13.1602C17.4099 13.1398 17.4136 13.123 17.4177 13.1113C17.4113 13.1008 17.4039 13.086 17.3914 13.0684C17.321 12.9693 17.2084 12.8434 17.0017 12.6133V12.6123L16.1423 11.6523L16.1267 11.6348L16.1121 11.6162C15.7807 11.1954 15.5916 10.5607 15.5916 10.0059C15.5916 9.45168 15.7805 8.81663 16.1111 8.39648L16.1257 8.37793L16.1414 8.36035L17.0017 7.39941L17.0027 7.39746C17.2089 7.16836 17.3212 7.04214 17.3914 6.94336C17.404 6.92543 17.4113 6.90996 17.4177 6.89941C17.4136 6.88771 17.4099 6.87098 17.4011 6.85059C17.353 6.73924 17.2695 6.59262 17.115 6.32422V6.32324L16.7039 5.61133C16.5395 5.32575 16.4477 5.16855 16.3699 5.06445C16.3562 5.04618 16.3442 5.03331 16.3357 5.02344C16.323 5.02458 16.3057 5.02584 16.2839 5.0293C16.1553 5.04977 15.9806 5.09777 15.6628 5.1875L14.6462 5.47461L14.6287 5.47949L14.6111 5.4834C14.056 5.61151 13.4733 5.53918 12.9666 5.27734L12.9519 5.26953L12.9373 5.26074L12.656 5.09961L12.6404 5.09082L12.6257 5.08105C12.1919 4.80304 11.8583 4.39315 11.6736 3.91211L11.6677 3.89746L11.6619 3.88184L11.3835 3.0498V3.04883C11.2865 2.75769 11.2323 2.59866 11.1814 2.48926C11.1721 2.46921 11.1629 2.45504 11.157 2.44434C11.1453 2.4422 11.1295 2.43887 11.1091 2.43652C10.9899 2.42282 10.8226 2.42188 10.5164 2.42188H9.58765ZM10.0173 6.33301C10.9896 6.33318 11.9226 6.71975 12.6101 7.40723C13.2974 8.09481 13.6833 9.02781 13.6833 10C13.6832 10.9722 13.2976 11.9053 12.6101 12.5928C11.9226 13.2803 10.9896 13.6658 10.0173 13.666C9.04514 13.666 8.11214 13.2801 7.42456 12.5928C6.73704 11.9053 6.35047 10.9723 6.35034 10C6.35034 9.02754 6.73693 8.09486 7.42456 7.40723C8.11219 6.71965 9.04491 6.33301 10.0173 6.33301ZM10.0173 7.83301C9.44274 7.83301 8.89143 8.0615 8.48511 8.46777C8.07878 8.8741 7.85034 9.42536 7.85034 10C7.85047 10.5745 8.07889 11.126 8.48511 11.5322C8.89138 11.9382 9.44296 12.166 10.0173 12.166C10.5917 12.1658 11.1434 11.9384 11.5496 11.5322C11.9557 11.126 12.1832 10.5744 12.1833 10C12.1833 9.42563 11.9555 8.87405 11.5496 8.46777C11.1434 8.0616 10.5917 7.83318 10.0173 7.83301Z" fill="currentColor"/>
</svg>
