<svg width="20" height="20" viewBox="0 0 20 20" fill="none" xmlns="http://www.w3.org/2000/svg">
<path d="M14.7222 2.03711C15.3778 2.03713 15.935 2.26672 16.394 2.72559C16.8531 3.18469 17.0835 3.74257 17.0835 4.39844C17.0834 5.05421 16.8531 5.61126 16.394 6.07031C15.935 6.52936 15.378 6.75974 14.7222 6.75977C14.4074 6.75977 14.1119 6.70356 13.8364 6.5918C13.5611 6.48008 13.3187 6.32598 13.1089 6.12988L7.57959 9.35645C7.60582 9.44827 7.62257 9.53752 7.62939 9.62305C7.63618 9.70838 7.63968 9.80311 7.63916 9.90723C7.63864 10.0116 7.63517 10.1073 7.62939 10.1934C7.62362 10.2792 7.6068 10.3674 7.57959 10.458L13.1089 13.6855C13.3187 13.4889 13.5611 13.3349 13.8364 13.2236C14.1119 13.1124 14.4074 13.0562 14.7222 13.0557C15.3778 13.0557 15.935 13.2853 16.394 13.7441C16.8531 14.2032 17.0835 14.7611 17.0835 15.417C17.0834 16.0727 16.8531 16.6298 16.394 17.0889C15.935 17.5479 15.378 17.7783 14.7222 17.7783C14.0663 17.7783 13.5084 17.548 13.0493 17.0889C12.5905 16.6299 12.3609 16.0726 12.3608 15.417C12.3608 15.3383 12.3811 15.1546 12.4204 14.8662L6.89111 11.6387C6.68124 11.8354 6.43806 11.9898 6.1626 12.1016C5.88729 12.2132 5.59245 12.2691 5.27783 12.2686C4.62197 12.2686 4.06409 12.0392 3.60498 11.5801C3.14589 11.121 2.9165 10.5631 2.9165 9.90723C2.91656 9.25159 3.1461 8.69435 3.60498 8.23535C4.06409 7.77625 4.62197 7.5459 5.27783 7.5459C5.5924 7.54592 5.88732 7.60225 6.1626 7.71387C6.43803 7.82561 6.68125 7.97958 6.89111 8.17578L12.4204 4.94922C12.3942 4.8574 12.3779 4.76859 12.3716 4.68359C12.3653 4.59873 12.3614 4.50369 12.3608 4.39844C12.3608 3.7426 12.5902 3.18468 13.0493 2.72559C13.5084 2.26648 14.0663 2.03711 14.7222 2.03711Z" fill="#6D6D6D"/>
</svg>
