<svg width="20" height="20" viewBox="0 0 20 20" fill="none" xmlns="http://www.w3.org/2000/svg">
<path d="M15.7147 5.83301C16.2184 5.83316 16.6071 6.27706 16.5408 6.77637L15.0965 17.6094C15.0413 18.0233 14.6879 18.3329 14.2703 18.333H5.72931C5.31183 18.3328 4.9593 18.0232 4.90411 17.6094L3.4588 6.77637C3.3925 6.27709 3.78129 5.8332 4.28497 5.83301H15.7147ZM10.0008 8.26562C9.77094 8.26566 9.58419 8.45187 9.5838 8.68164V15.4844C9.58403 15.7143 9.77084 15.9004 10.0008 15.9004C10.2306 15.9002 10.4166 15.7142 10.4168 15.4844V8.68164C10.4164 8.45199 10.2305 8.26586 10.0008 8.26562ZM6.36896 8.30273C6.1413 8.33208 5.98487 8.53974 6.01935 8.7666L7.05255 15.5059C7.08754 15.7327 7.30047 15.8925 7.52814 15.8633C7.7558 15.8338 7.91246 15.6264 7.87775 15.3994L6.84454 8.66016C6.80938 8.43366 6.59635 8.27379 6.36896 8.30273ZM13.6317 8.30273C13.4041 8.27347 13.1913 8.43355 13.1561 8.66016L12.1219 15.3994C12.0872 15.6263 12.2439 15.8338 12.4715 15.8633C12.6992 15.8925 12.9121 15.7327 12.9471 15.5059L13.9813 8.7666C14.0156 8.53991 13.8591 8.33224 13.6317 8.30273ZM11.5281 2.5C11.8208 2.5 12.0924 2.65335 12.243 2.9043L12.4998 3.33301H15.1942C16.1055 3.33301 16.8445 4.07208 16.8445 4.9834C16.8445 4.99251 16.8371 5 16.8279 5H3.17169C3.16272 4.99984 3.15509 4.99241 3.15509 4.9834C3.15514 4.07214 3.89424 3.33311 4.80548 3.33301H7.49982L7.75763 2.9043C7.90823 2.65361 8.17905 2.50011 8.4715 2.5H11.5281Z" fill="currentColor"/>
</svg>
