<svg width="20" height="20" viewBox="0 0 20 20" fill="none" xmlns="http://www.w3.org/2000/svg">
<path d="M13.371 3.39302C13.4602 3.30397 13.6049 3.30408 13.6942 3.39302L16.6063 6.30415C16.6955 6.39333 16.6952 6.53803 16.6063 6.62739L6.56724 16.6665H17.4999C17.96 16.6665 18.3337 17.0393 18.3338 17.4995C18.3338 17.9597 17.9601 18.3334 17.4999 18.3334H2.10631V18.3305C1.81773 18.3197 1.59054 18.0311 1.69127 17.729L2.93345 14.0014C2.98958 13.8332 3.08448 13.6796 3.20982 13.5542L13.371 3.39302ZM14.4901 2.27485C15.3022 1.46309 16.6185 1.46305 17.4305 2.27485L17.7245 2.5688C18.5365 3.38082 18.5363 4.6971 17.7245 5.50923C17.6433 5.59044 17.5117 5.59044 17.4305 5.50923L14.4901 2.5688C14.4091 2.48757 14.409 2.35599 14.4901 2.27485Z" fill="currentColor"/>
</svg>
