<svg width="44" height="44" viewBox="0 0 44 44" fill="none" xmlns="http://www.w3.org/2000/svg">
<path d="M25.371 15.393C25.4602 15.304 25.6049 15.3041 25.6942 15.393L28.6063 18.3042C28.6955 18.3933 28.6952 18.538 28.6063 18.6274L18.5672 28.6665H29.4999C29.96 28.6665 30.3337 29.0393 30.3338 29.4995C30.3338 29.9597 29.9601 30.3334 29.4999 30.3334H14.1063V30.3305C13.8177 30.3197 13.5905 30.0311 13.6913 29.729L14.9335 26.0014C14.9896 25.8332 15.0845 25.6796 15.2098 25.5542L25.371 15.393ZM26.4901 14.2749C27.3022 13.4631 28.6185 13.463 29.4305 14.2749L29.7245 14.5688C30.5365 15.3808 30.5363 16.6971 29.7245 17.5092C29.6433 17.5904 29.5117 17.5904 29.4305 17.5092L26.4901 14.5688C26.4091 14.4876 26.409 14.356 26.4901 14.2749Z" fill="currentColor"/>
</svg>
