<svg width="17" height="17" viewBox="0 0 17 17" xmlns="http://www.w3.org/2000/svg">
<path d="M8.33301 0C12.9353 0 16.6668 3.73078 16.667 8.33301C16.667 12.9354 12.9354 16.667 8.33301 16.667C3.73078 16.6668 0 12.9353 0 8.33301C0.000175744 3.73089 3.73089 0.000175747 8.33301 0ZM12.1973 4.46973C11.9044 4.17695 11.4296 4.17701 11.1367 4.46973L8.33301 7.27246L5.53027 4.46973C5.23738 4.17707 4.76255 4.17696 4.46973 4.46973C4.17697 4.76255 4.17708 5.23738 4.46973 5.53027L7.27246 8.33301L4.46973 11.1367C4.17718 11.4296 4.177 11.9045 4.46973 12.1973C4.76254 12.4897 5.23747 12.4897 5.53027 12.1973L8.33301 9.39355L11.1367 12.1973C11.4296 12.4895 11.9046 12.4899 12.1973 12.1973C12.4899 11.9046 12.4895 11.4297 12.1973 11.1367L9.39355 8.33301L12.1973 5.53027C12.4899 5.23749 12.4898 4.7626 12.1973 4.46973Z" fill="currentColor"/>
</svg>
